<?xml version="1.0" encoding="UTF-8" standalone="no"?>
<svg
   xmlns:dc="http://purl.org/dc/elements/1.1/"
   xmlns:cc="http://creativecommons.org/ns#"
   xmlns:rdf="http://www.w3.org/1999/02/22-rdf-syntax-ns#"
   xmlns:svg="http://www.w3.org/2000/svg"
   xmlns="http://www.w3.org/2000/svg"
   xmlns:sodipodi="http://sodipodi.sourceforge.net/DTD/sodipodi-0.dtd"
   xmlns:inkscape="http://www.inkscape.org/namespaces/inkscape"
   version="1.0"
   width="459.35223pt"
   height="750pt"
   viewBox="0 0 459.35223 750"
   preserveAspectRatio="xMidYMid meet"
   id="svg14"
   sodipodi:docname="ABP_Ananda.svg"
   inkscape:version="0.92.3 (2405546, 2018-03-11)">
  <metadata
     id="metadata20">
    <rdf:RDF>
      <cc:Work
         rdf:about="">
        <dc:format>image/svg+xml</dc:format>
        <dc:type
           rdf:resource="http://purl.org/dc/dcmitype/StillImage" />
      </cc:Work>
    </rdf:RDF>
  </metadata>
  <defs
     id="defs18" />
  <sodipodi:namedview
     pagecolor="#ffffff"
     bordercolor="#666666"
     borderopacity="1"
     objecttolerance="10"
     gridtolerance="10"
     guidetolerance="10"
     inkscape:pageopacity="0"
     inkscape:pageshadow="2"
     inkscape:window-width="1366"
     inkscape:window-height="705"
     id="namedview16"
     showgrid="false"
     inkscape:zoom="0.177"
     inkscape:cx="-321.42374"
     inkscape:cy="605.3333"
     inkscape:window-x="-8"
     inkscape:window-y="-8"
     inkscape:window-maximized="1"
     inkscape:current-layer="svg14" />
  <g
     transform="matrix(0.08261731,0,0,-0.08261731,-183.41043,788.00396)"
     id="g12"
     style="fill:#f00000;stroke:none">
    <path
       d="M 3673,7253 C 2947,5994 2354,4963 2356,4962 c 1,-2 595,339 1319,757 724,419 1320,761 1325,761 4,0 601,-342 1325,-761 724,-418 1318,-759 1319,-757 5,5 -2633,4573 -2642,4576 -5,1 -603,-1027 -1329,-2285 z"
       id="path2"
       inkscape:connector-curvature="0" />
    <path
       d="m 4460,3550 v -720 h 99 99 l 40,71 39,71 28,-36 c 62,-82 185,-136 310,-136 140,0 251,46 351,145 108,107 164,254 164,430 0,57 -7,127 -15,160 -67,263 -279,428 -532,413 -102,-6 -175,-39 -248,-112 l -55,-55 v 245 244 h -140 -140 z m 662,124 c 67,-22 122,-75 160,-151 28,-57 33,-77 33,-142 0,-107 -25,-172 -89,-236 -142,-142 -366,-101 -458,83 -19,40 -23,63 -23,147 0,86 3,106 24,145 73,141 213,202 353,154 z"
       id="path4"
       inkscape:connector-curvature="0" />
    <path
       d="m 3513,3935 c -171,-48 -300,-176 -360,-359 -21,-66 -26,-101 -27,-191 -2,-188 49,-322 164,-437 109,-109 229,-154 385,-146 103,6 176,40 251,116 30,30 56,53 58,51 2,-2 21,-34 42,-71 l 38,-68 h 98 98 v 545 545 h -140 -140 v -66 -67 l -55,52 c -82,77 -148,105 -265,108 -61,2 -114,-2 -147,-12 z m 310,-278 c 55,-32 103,-87 131,-146 29,-65 28,-206 -1,-272 -28,-61 -75,-113 -132,-147 -40,-24 -57,-27 -131,-27 -74,0 -91,3 -131,27 -57,33 -105,87 -133,147 -16,36 -21,66 -21,136 0,78 4,97 28,147 32,66 100,130 160,152 65,24 173,16 230,-17 z"
       id="path6"
       inkscape:connector-curvature="0" />
    <path
       d="m 6236,3934 c -74,-23 -141,-69 -188,-131 l -27,-35 -43,76 -43,76 h -97 -98 v -705 -705 h 140 140 v 226 227 l 55,-52 c 80,-75 148,-104 261,-109 104,-5 173,11 267,60 115,61 222,210 258,358 17,71 17,239 0,310 -48,198 -196,358 -376,405 -74,19 -185,18 -249,-1 z m 200,-272 c 51,-26 110,-91 138,-151 31,-68 30,-206 -3,-278 -29,-64 -101,-134 -164,-158 -66,-25 -170,-17 -230,18 -90,53 -143,140 -154,250 -13,144 69,286 192,332 56,21 168,14 221,-13 z"
       id="path8"
       inkscape:connector-curvature="0" />
    <path
       d="m 4240,1938 v -152 l -27,27 c -63,60 -15,57 -1048,57 h -945 v -105 -105 h 710 710 V 1214 768 l -70,65 c -38,37 -80,73 -94,82 -21,14 -23,20 -15,53 12,50 11,148 -1,213 -26,135 -121,264 -239,322 -61,30 -72,32 -171,32 -115,0 -157,-14 -212,-72 -72,-75 -76,-203 -10,-276 77,-86 246,-73 324,24 17,21 35,36 40,33 24,-15 48,-87 48,-147 0,-161 -126,-263 -298,-243 -113,13 -208,82 -276,198 -38,65 -89,212 -116,333 -12,55 -23,105 -25,112 -3,10 -41,4 -201,-32 -21,-5 -21,-6 -9,-72 87,-452 264,-704 541,-769 50,-12 96,-15 169,-11 121,7 200,32 273,88 l 54,40 66,-55 c 37,-30 105,-93 152,-140 l 85,-86 h 117 118 v 600 600 h 89 c 120,0 190,-14 221,-45 l 25,-25 3,-565 2,-565 h 120 120 v 600 600 l 523,-2 522,-3 3,-234 2,-235 -62,60 c -116,111 -225,156 -378,157 -108,0 -183,-21 -251,-71 -82,-61 -112,-126 -111,-245 0,-130 73,-225 190,-247 176,-33 311,106 257,264 -9,26 -15,49 -13,51 2,2 25,-1 51,-6 102,-19 199,-95 250,-196 46,-90 58,-149 64,-326 l 6,-167 h 119 118 v 600 600 h 460 460 v -181 -181 l -55,50 c -129,118 -316,152 -465,86 -101,-46 -158,-122 -167,-223 -6,-69 8,-126 46,-178 40,-55 90,-78 172,-78 115,0 183,65 183,175 0,31 -7,69 -16,88 -16,31 -16,32 6,32 67,0 159,-59 211,-135 39,-56 78,-168 90,-253 l 7,-53 109,-54 c 60,-30 110,-55 112,-55 2,0 43,47 91,104 89,107 226,244 305,306 43,33 44,33 37,10 -12,-40 -19,-374 -11,-523 l 7,-137 h 117 116 v 328 c 0,276 3,340 18,409 10,46 20,89 23,97 4,10 -32,40 -114,95 l -120,80 -88,-60 c -117,-80 -213,-158 -301,-245 l -73,-71 v 283 284 h 430 430 v 105 105 H 6125 4470 v 110 110 h -115 -115 z"
       id="path10"
       inkscape:connector-curvature="0" />
  </g>
</svg>
